<svg width="100" height="100" viewBox="0 0 100 100" xmlns="http://www.w3.org/2000/svg">
  <defs>
    <linearGradient id="goldGradient" x1="0%" y1="0%" x2="100%" y2="100%">
      <stop offset="0%" style="stop-color:#FFD700;stop-opacity:1" />
      <stop offset="50%" style="stop-color:#FFA500;stop-opacity:1" />
      <stop offset="100%" style="stop-color:#FF8C00;stop-opacity:1" />
    </linearGradient>
    <linearGradient id="blueGradient" x1="0%" y1="0%" x2="100%" y2="100%">
      <stop offset="0%" style="stop-color:#0080FF;stop-opacity:1" />
      <stop offset="50%" style="stop-color:#0066CC;stop-opacity:1" />
      <stop offset="100%" style="stop-color:#004080;stop-opacity:1" />
    </linearGradient>
    <linearGradient id="purpleGradient" x1="0%" y1="0%" x2="100%" y2="100%">
      <stop offset="0%" style="stop-color:#B347FF;stop-opacity:1" />
      <stop offset="50%" style="stop-color:#9933CC;stop-opacity:1" />
      <stop offset="100%" style="stop-color:#7A1FB8;stop-opacity:1" />
    </linearGradient>
    <filter id="glow">
      <feGaussianBlur stdDeviation="3" result="coloredBlur"/>
      <feMerge> 
        <feMergeNode in="coloredBlur"/>
        <feMergeNode in="SourceGraphic"/>
      </feMerge>
    </filter>
  </defs>
  
  <!-- Background Circle -->
  <circle cx="50" cy="50" r="45" fill="url(#goldGradient)" opacity="0.2" filter="url(#glow)"/>
  
  <!-- Main Logo Shape - Modern Arabic Calligraphy Style -->
  <!-- Letter ش (Sheen) for شروحات -->
  <path d="M25 35 Q35 25 45 35 Q55 25 65 35 Q75 25 85 35" 
        stroke="url(#goldGradient)" 
        stroke-width="3" 
        fill="none" 
        stroke-linecap="round" 
        filter="url(#glow)"/>
  
  <!-- Three dots above sheen -->
  <circle cx="35" cy="20" r="2" fill="url(#blueGradient)"/>
  <circle cx="50" cy="15" r="2" fill="url(#purpleGradient)"/>
  <circle cx="65" cy="20" r="2" fill="url(#blueGradient)"/>
  
  <!-- Letter ت (Taa) for توفي -->
  <path d="M30 50 L70 50" 
        stroke="url(#blueGradient)" 
        stroke-width="4" 
        stroke-linecap="round" 
        filter="url(#glow)"/>
  
  <!-- Two dots above taa -->
  <circle cx="45" cy="42" r="2" fill="url(#purpleGradient)"/>
  <circle cx="55" cy="42" r="2" fill="url(#purpleGradient)"/>
  
  <!-- Modern geometric elements -->
  <rect x="20" y="65" width="15" height="3" rx="1.5" fill="url(#goldGradient)" opacity="0.8"/>
  <rect x="40" y="70" width="20" height="3" rx="1.5" fill="url(#blueGradient)" opacity="0.8"/>
  <rect x="65" y="65" width="15" height="3" rx="1.5" fill="url(#purpleGradient)" opacity="0.8"/>
  
  <!-- Social media symbols integration -->
  <!-- Instagram camera icon stylized -->
  <rect x="15" y="75" width="12" height="12" rx="3" fill="none" stroke="url(#goldGradient)" stroke-width="1.5" opacity="0.6"/>
  <circle cx="21" cy="81" r="3" fill="none" stroke="url(#goldGradient)" stroke-width="1.5" opacity="0.6"/>
  <circle cx="24" cy="78" r="0.8" fill="url(#goldGradient)" opacity="0.6"/>
  
  <!-- TikTok musical note stylized -->
  <path d="M73 75 Q77 73 77 77 Q77 83 73 83 Q69 83 69 79 Q69 75 73 75" 
        fill="url(#purpleGradient)" 
        opacity="0.6"/>
  <circle cx="71" cy="77" r="1.5" fill="url(#blueGradient)" opacity="0.6"/>
  
  <!-- Central connecting element -->
  <circle cx="50" cy="50" r="8" fill="none" stroke="url(#goldGradient)" stroke-width="2" opacity="0.4" filter="url(#glow)"/>
  <circle cx="50" cy="50" r="3" fill="url(#blueGradient)" opacity="0.8"/>
</svg>
